<svg width="84" height="46" viewBox="0 0 84 46" fill="none" xmlns="http://www.w3.org/2000/svg">
<path fill-rule="evenodd" clip-rule="evenodd" d="M11.2354 17H12.5674V1.35938H11.2354V8.38477H2.29785V1.35938H0.976562V17H2.29785V9.50195H11.2354V17ZM18.0674 16.4844C18.8695 16.9714 19.7646 17.2148 20.7529 17.2148C22.5505 17.2148 23.9219 16.5309 24.8672 15.1631L24.0615 14.5508C23.6318 15.1022 23.152 15.5033 22.6221 15.7539C22.0993 16.0046 21.4941 16.1299 20.8066 16.1299C19.6608 16.1299 18.7083 15.693 17.9492 14.8193C17.1973 13.9385 16.8213 12.8392 16.8213 11.5215V11.2744H25.1143V10.5547C25.1143 8.88607 24.6989 7.57194 23.8682 6.6123C23.0446 5.64551 21.9274 5.16211 20.5166 5.16211C19.6143 5.16211 18.7764 5.41992 18.0029 5.93555C17.2295 6.44401 16.6243 7.14583 16.1875 8.04102C15.7578 8.9362 15.543 9.94238 15.543 11.0596V11.5215C15.543 12.6029 15.765 13.5804 16.209 14.4541C16.653 15.3206 17.2725 15.9974 18.0674 16.4844ZM18.0674 7.32129C18.7334 6.6123 19.5498 6.25781 20.5166 6.25781C21.4906 6.25781 22.2783 6.60872 22.8799 7.31055C23.4814 8.01237 23.8001 8.92188 23.8359 10.0391V10.1787H16.8643C17.0075 8.98275 17.4085 8.03027 18.0674 7.32129ZM34.707 15.3779C34.7428 16.0941 34.8252 16.6348 34.9541 17H36.3291V16.8711C36.0928 16.3125 35.9746 15.471 35.9746 14.3467V8.84668C35.9531 7.68652 35.5664 6.78418 34.8145 6.13965C34.0697 5.48796 33.0492 5.16211 31.7529 5.16211C30.4997 5.16211 29.4434 5.50228 28.584 6.18262C27.7246 6.85579 27.2949 7.6543 27.2949 8.57812L28.584 8.58887C28.584 7.94434 28.8776 7.3929 29.4648 6.93457C30.0521 6.47624 30.7933 6.24707 31.6885 6.24707C32.6696 6.24707 33.4144 6.48698 33.9229 6.9668C34.4385 7.43945 34.6963 8.09115 34.6963 8.92188V10.2432H32.3652C30.6823 10.2432 29.3682 10.5726 28.4229 11.2314C27.4847 11.8903 27.0156 12.7855 27.0156 13.917C27.0156 14.8695 27.3594 15.6572 28.0469 16.2803C28.7415 16.9033 29.6475 17.2148 30.7646 17.2148C31.5452 17.2148 32.2829 17.0573 32.9775 16.7422C33.6794 16.4199 34.2559 15.9652 34.707 15.3779ZM33.2139 15.4531C32.5407 15.8685 31.7744 16.0762 30.915 16.0762C30.1416 16.0762 29.5114 15.8613 29.0244 15.4316C28.5446 15.002 28.3047 14.4613 28.3047 13.8096C28.3047 13.0146 28.6663 12.3916 29.3896 11.9404C30.113 11.4821 31.1156 11.2458 32.3975 11.2314H34.6963V13.7881C34.3883 14.4827 33.8942 15.0378 33.2139 15.4531ZM39.5625 17H40.8516V0.5H39.5625V17ZM46.3516 5.37695V2.40137H45.0625V5.37695H42.9248V6.42969H45.0625V14.1855C45.0625 15.181 45.263 15.9365 45.6641 16.4521C46.0651 16.9606 46.7061 17.2148 47.5869 17.2148C48.167 17.2148 48.6253 17.154 48.9619 17.0322L48.9082 15.9795C48.4284 16.0511 48.0811 16.0869 47.8662 16.0869C47.3219 16.0869 46.9316 15.9294 46.6953 15.6143C46.4661 15.2992 46.3516 14.8193 46.3516 14.1748V6.42969H48.7578V5.37695H46.3516ZM54.3223 5.73145C53.6634 6.111 53.1227 6.64811 52.7002 7.34277V0.5H51.4219V17H52.7002V9.04004C52.9938 8.19499 53.445 7.52539 54.0537 7.03125C54.6696 6.52995 55.375 6.2793 56.1699 6.2793C57.1224 6.2793 57.8135 6.53353 58.2432 7.04199C58.68 7.55046 58.902 8.32389 58.9092 9.3623V17H60.1875V9.37305C60.1803 7.9694 59.8724 6.91667 59.2637 6.21484C58.6549 5.51302 57.7275 5.16211 56.4814 5.16211C55.7008 5.16211 54.9811 5.35189 54.3223 5.73145ZM15.2964 22.4092H23.8364V21.5391H5.88623V22.4092H14.4263V45H15.2964V22.4092ZM32.8276 28.0972L33.9556 28.1938L34.0522 27.4204C33.7407 27.3022 33.3325 27.2432 32.8276 27.2432C31.3989 27.2432 30.2119 27.5977 29.2666 28.3066C28.3213 29.0156 27.6123 29.9771 27.1396 31.1909V27.5654H26.2695V45H27.1396V33.5757C27.4512 31.8462 28.1064 30.5034 29.1055 29.5474C30.1045 28.5806 31.3452 28.0972 32.8276 28.0972ZM47.6196 41.8096C47.6196 43.1953 47.7271 44.2588 47.9419 45H48.9409V44.855C48.6401 44.1675 48.4897 42.8677 48.4897 40.9556V32.625C48.4575 30.917 47.8882 29.5957 46.7817 28.6611C45.6753 27.7158 44.1821 27.2432 42.3022 27.2432C40.4976 27.2432 38.9722 27.7373 37.7261 28.7256C36.48 29.7139 35.8569 30.917 35.8569 32.335L36.7271 32.3672C36.7271 31.1641 37.2588 30.1543 38.3223 29.3379C39.3857 28.5215 40.7124 28.1133 42.3022 28.1133C44.0103 28.1133 45.3208 28.5161 46.2339 29.3218C47.1577 30.1274 47.6196 31.2607 47.6196 32.7217V35.2676H43.3174C40.9219 35.2891 38.999 35.7832 37.5488 36.75C36.1094 37.7061 35.3896 38.9844 35.3896 40.585C35.3896 41.9922 35.8784 43.1362 36.856 44.0171C37.8442 44.8872 39.144 45.3223 40.7554 45.3223C42.2593 45.3223 43.6074 45.0161 44.7998 44.4038C45.9922 43.7915 46.9321 42.9268 47.6196 41.8096ZM44.9609 43.3726C43.79 44.103 42.3882 44.4683 40.7554 44.4683C39.4556 44.4683 38.3813 44.0977 37.5327 43.3564C36.6841 42.6152 36.2598 41.7129 36.2598 40.6494C36.2598 39.4463 36.7969 38.4419 37.8711 37.6362C39.1924 36.6479 41.0991 36.1538 43.5913 36.1538H47.6196V40.2949C47.0288 41.6162 46.1426 42.6421 44.9609 43.3726ZM63.9263 43.1953C62.9058 44.0332 61.606 44.4521 60.0269 44.4521C58.0825 44.4521 56.5518 43.7593 55.4346 42.3735C54.3281 40.9771 53.7749 39.0596 53.7749 36.6211V36.0571C53.7749 33.5649 54.3228 31.6206 55.4185 30.2241C56.5249 28.8169 58.0503 28.1133 59.9946 28.1133C61.6167 28.1133 62.938 28.5913 63.9585 29.5474C64.9897 30.4927 65.543 31.7495 65.6182 33.3179H66.4883C66.4131 31.481 65.7739 30.0093 64.5708 28.9028C63.3677 27.7964 61.8423 27.2432 59.9946 27.2432C57.8354 27.2432 56.1113 28.0327 54.8223 29.6118C53.5439 31.1909 52.9048 33.3018 52.9048 35.9443V36.5244C52.9048 39.2314 53.5439 41.3745 54.8223 42.9536C56.1113 44.5327 57.8462 45.3223 60.0269 45.3223C61.8208 45.3223 63.3247 44.812 64.5386 43.7915C65.7524 42.7603 66.4023 41.4014 66.4883 39.7148H65.6182C65.5215 41.1973 64.9575 42.3574 63.9263 43.1953ZM74.271 35.606L74.3032 35.5737L82.3276 45H83.4556L74.9478 34.9937L82.9561 27.5654H81.7153L73.7876 34.897L71.7412 36.8306V20.25H70.8711V45H71.7412V37.7812L74.271 35.606Z" fill="white"/>
</svg>
